<svg viewBox="0 0 64 64" xmlns="http://www.w3.org/2000/svg"><path d="M17 29h2v-8h-2a4 4 0 000 8zM57 21h-2v8h2a4 4 0 000-8z" fill="#e0c494"/><path d="M62 54.574a10.982 10.982 0 00-4.19-1.874l-9.63-2.03c-.26-.05-.5-.13-.74-.23H26.57c-.24.1-.49.18-.75.23l-9.63 2.03c-3.83.8-6.95 3.58-8.19 7.3v2h54v-7.426z" fill="#62c4c3"/><path d="M47.43 50.44L36.999 56 26.57 50.44a4.028 4.028 0 002.429-3.69v-2.63h16v2.63c0 1.629.981 3.059 2.431 3.69z" fill="#f2daae"/><path d="M29 46.324C31.451 47.396 34.153 48 37 48s5.549-.604 8-1.676V44.12H29v2.204z" fill="#e0c494"/><path fill="#42a5b2" d="M43 56h13v4H43z"/><path d="M45 44.12A17.88 17.88 0 0137 46c-2.88 0-5.59-.68-8-1.88-5.36-2.66-9.2-7.91-9.89-14.12h35.78c-.69 6.21-4.53 11.46-9.89 14.12z" fill="#62c4c3"/><path d="M55 20v1c-3.31 0-6-2.69-6-6v-1H21.21c-.33 0-.67-.03-.99-.08-.05-.01-.1-.01-.14-.02-2.54-.46-4.65-2.42-5.02-5.03a6.001 6.001 0 015.14-6.81A3.002 3.002 0 0023 4h16c8.84 0 16 7.16 16 16z" fill="#efbc2e"/><path d="M55 21v7c0 .68-.04 1.34-.11 2H19.11c-.07-.66-.11-1.32-.11-2v-8c0-2.15.39-4.19 1.08-6.1.04.01.09.01.14.02.32.05.65.08.99.08H49v1c0 3.31 2.69 6 6 6z" fill="#f2daae"/><path d="M32 25a2 2 0 11-4.001-.001A2 2 0 0132 25zM46 25a2 2 0 11-4.001-.001A2 2 0 0146 25z" fill="#3a4249"/><path fill="#42a5b2" d="M37 56l-1-.533V62h2v-6.533z"/><path d="M3 37v25h16v-9l4-7v-3a2 2 0 00-2-2h-2V27a2 2 0 00-4 0v10a2 2 0 00-4 0 2 2 0 00-4 0 2 2 0 00-4 0z" fill="#f2daae"/><path d="M13 49a4 4 0 014-4h3-1a4 4 0 01-4-4h6a2 2 0 012 2v3l-4 7h-2a4 4 0 01-4-4z" fill="#e0c494"/><path d="M13 43a2 2 0 002-2v-4a2 2 0 00-4 0v4a2 2 0 002 2zM9 43a2 2 0 002-2v-4a2 2 0 00-4 0v4a2 2 0 002 2zM5 43a2 2 0 002-2v-4a2 2 0 00-4 0v4a2 2 0 002 2z" fill="#e0c494"/></svg>