<svg id="Layer_1" version="1.1" viewBox="0 0 128 128" xml:space="preserve" xmlns="http://www.w3.org/2000/svg"><style>.st12{fill:#2652e4}.st25{fill:#e44450}</style><circle cx="64" cy="64" r="46.7" fill="#bde5ec"/><circle cx="64" cy="64" r="35" fill="#f7f7eb"/><path class="st25" d="M67.7 3.1c1.4.5 1.9 1 2 1.5 0 .5-.2 1-.8 1.5-.5.5-1.2 1-1.5 1.5-.4.4-.4.9-.5 1.4-.4 2-.7 4-1 5.9-.3 2-.5 4-.6 5.9-.1 2-.2 4 0 5.9.1.7-.5 1.3-1.2 1.4-.7.1-1.3-.5-1.4-1.2v-.2c.1-2 .1-4 0-5.9-.1-2-.3-4-.6-5.9-.3-2-.6-4-1-5.9-.1-.5-.1-1-.5-1.5s-1-1-1.5-1.5-.8-1-.8-1.5c.1-.5.6-1 2-1.5 2.6-.7 5.1-.7 7.4.1zM123.9 67.7c-.5 1.4-1 1.9-1.5 2-.5 0-1-.2-1.5-.8-.5-.5-1-1.2-1.5-1.5-.5-.4-1-.4-1.5-.5-2-.4-4-.7-5.9-1-2-.3-4-.5-5.9-.6-2-.1-4-.2-5.9 0-.7.1-1.3-.5-1.4-1.2-.1-.7.5-1.3 1.2-1.4h.2c2 .1 4 .1 5.9 0 2-.1 4-.3 5.9-.6 2-.3 4-.6 5.9-1 .5-.1 1-.1 1.5-.5s1-1 1.5-1.5 1-.8 1.5-.8c.5.1 1 .6 1.5 2 .8 2.6.8 5.1 0 7.4zM59.3 123.9c-1.4-.5-1.9-1-2-1.5 0-.5.2-1 .8-1.5.5-.5 1.2-1 1.5-1.5.4-.5.4-1 .5-1.5.4-2 .7-4 1-5.9.3-2 .5-4 .6-5.9.1-2 .2-4 0-5.9-.1-.7.5-1.3 1.2-1.4.7-.1 1.3.5 1.4 1.2v.2c-.1 2-.1 4 0 5.9.1 2 .3 4 .6 5.9.3 2 .6 4 1 5.9.1.5.1 1 .5 1.5s1 1 1.5 1.5.8 1 .8 1.5c-.1.5-.6 1-2 1.5-2.6.8-5.1.8-7.4 0zM3.1 59.3c.5-1.4 1-1.9 1.5-2 .5 0 1 .2 1.5.8.5.5 1 1.2 1.5 1.5.4.4.9.4 1.4.5 2 .4 4 .7 5.9 1 2 .3 4 .5 5.9.6 2 .1 4 .2 5.9 0 .7-.1 1.3.5 1.4 1.2.1.7-.5 1.3-1.2 1.4h-.2c-2-.1-4-.1-5.9 0-2 .1-4 .3-5.9.6-2 .3-4 .6-5.9 1-.5.1-1 .1-1.5.5s-1 1-1.5 1.5-1 .8-1.5.8c-.5-.1-1-.6-1.5-2-.7-2.6-.7-5.1.1-7.4zM36.9 9.1c1.5-.3 2.2-.1 2.5.3.3.4.3 1 .1 1.7-.2.7-.5 1.4-.6 2.1-.1.6.2 1 .3 1.5.7 1.9 1.4 3.8 2.1 5.6.8 1.8 1.6 3.7 2.5 5.4.9 1.8 1.8 3.5 3 5.1.4.6.2 1.4-.3 1.8-.6.4-1.4.2-1.8-.3 0-.1-.1-.1-.1-.2-.9-1.8-1.9-3.5-3-5.1-1.1-1.7-2.2-3.3-3.5-4.8-1.2-1.6-2.5-3.1-3.8-4.7-.3-.4-.6-.8-1.2-1-.6-.2-1.4-.3-2.1-.5-.7-.2-1.2-.5-1.4-.9-.2-.5 0-1.1 1-2.3 1.7-2 4-3.2 6.3-3.7zM117.9 36.9c.3 1.5.1 2.2-.3 2.5-.4.3-1 .3-1.7.1-.7-.2-1.4-.5-2.1-.6-.6-.1-1 .2-1.5.3-1.9.7-3.8 1.4-5.6 2.1-1.8.8-3.7 1.6-5.4 2.5-1.8.9-3.5 1.8-5.1 3-.6.4-1.4.2-1.8-.3-.4-.6-.2-1.4.3-1.8.1 0 .1-.1.2-.1 1.8-.9 3.5-1.9 5.1-3 1.7-1.1 3.3-2.2 4.8-3.5 1.6-1.2 3.1-2.5 4.7-3.8.4-.3.8-.6 1-1.2.2-.6.3-1.4.5-2.1.2-.7.5-1.2.9-1.4.5-.2 1.1 0 2.3 1 2 1.7 3.2 4 3.7 6.3zM90.1 117.9c-1.5.3-2.2.1-2.5-.3-.3-.4-.3-1-.1-1.7.2-.7.5-1.4.6-2.1.1-.6-.2-1-.3-1.5-.7-1.9-1.4-3.8-2.1-5.6-.8-1.8-1.6-3.7-2.5-5.4-.9-1.8-1.8-3.5-3-5.1-.4-.6-.2-1.4.3-1.8s1.4-.2 1.8.3c0 .1.1.1.1.2.9 1.8 1.9 3.5 3 5.1 1.1 1.7 2.2 3.3 3.5 4.8 1.2 1.6 2.5 3.1 3.8 4.7.3.4.6.8 1.2 1 .6.2 1.4.3 2.1.5.7.2 1.2.5 1.4.9.2.5 0 1.1-1 2.3-1.7 2-4 3.2-6.3 3.7zM9.1 90.1c-.3-1.5-.1-2.2.3-2.5.4-.3 1-.3 1.7-.1.7.2 1.4.5 2.1.6.6.1 1-.2 1.5-.3 1.9-.7 3.8-1.4 5.6-2.1 1.8-.8 3.7-1.6 5.4-2.5 1.8-.9 3.5-1.8 5.1-3 .6-.4 1.4-.2 1.8.3s.2 1.4-.3 1.8c-.1 0-.1.1-.2.1-1.8.9-3.5 1.9-5.1 3-1.7 1.1-3.3 2.2-4.8 3.5-1.6 1.2-3.1 2.5-4.7 3.8-.4.3-.8.6-1 1.2-.2.6-.3 1.4-.5 2.1-.2.7-.5 1.2-.9 1.4-.5.2-1.1 0-2.3-1-2-1.7-3.2-4-3.7-6.3zM13.3 29.7c1.1-1 1.8-1.2 2.3-1 .5.2.7.7.9 1.4.2.7.3 1.5.5 2.1.2.6.7.8 1 1.2 1.5 1.3 3.1 2.6 4.7 3.8 1.6 1.2 3.2 2.4 4.8 3.5 1.7 1.1 3.3 2.1 5.1 3 .6.3.9 1.1.6 1.7-.3.6-1.1.9-1.7.6-.1 0-.1-.1-.2-.1-1.6-1.1-3.4-2.1-5.1-3-1.8-.9-3.6-1.7-5.4-2.5-1.8-.8-3.7-1.5-5.6-2.1-.5-.2-.9-.4-1.5-.3-.6.1-1.4.4-2.1.6-.7.2-1.3.2-1.7-.1-.4-.3-.6-1-.3-2.5.6-2.6 1.9-4.8 3.7-6.3zM97.3 13.3c1 1.1 1.2 1.8 1 2.3-.2.5-.7.7-1.4.9-.7.2-1.5.3-2.1.5-.6.2-.8.7-1.2 1-1.3 1.5-2.6 3.1-3.8 4.7-1.2 1.6-2.4 3.2-3.5 4.8-1.1 1.7-2.1 3.3-3 5.1-.3.6-1.1.9-1.7.6-.6-.3-.9-1.1-.6-1.7 0-.1.1-.1.1-.2 1.1-1.6 2.1-3.4 3-5.1.9-1.8 1.7-3.6 2.5-5.4.8-1.8 1.5-3.7 2.1-5.6.2-.5.4-.9.3-1.5-.1-.6-.4-1.4-.6-2.1-.2-.7-.2-1.3.1-1.7.3-.4 1-.6 2.5-.3 2.6.6 4.8 1.9 6.3 3.7zM113.7 97.3c-1.1 1-1.8 1.2-2.3 1-.5-.2-.7-.7-.9-1.4-.2-.7-.3-1.5-.5-2.1-.2-.6-.7-.8-1-1.2-1.5-1.3-3.1-2.6-4.7-3.8-1.6-1.2-3.2-2.4-4.8-3.5-1.7-1.1-3.3-2.1-5.1-3-.6-.3-.9-1.1-.6-1.7s1.1-.9 1.7-.6c.1 0 .1.1.2.1 1.6 1.1 3.4 2.1 5.1 3 1.8.9 3.6 1.7 5.4 2.5 1.8.8 3.7 1.5 5.6 2.1.5.2.9.4 1.5.3.6-.1 1.4-.4 2.1-.6.7-.2 1.3-.2 1.7.1.4.3.6 1 .3 2.5-.6 2.6-1.9 4.8-3.7 6.3zM29.7 113.7c-1-1.1-1.2-1.8-1-2.3.2-.5.7-.7 1.4-.9.7-.2 1.5-.3 2.1-.5.6-.2.8-.7 1.2-1 1.3-1.5 2.6-3.1 3.8-4.7 1.2-1.6 2.4-3.2 3.5-4.8 1.1-1.7 2.1-3.3 3-5.1.3-.6 1.1-.9 1.7-.6s.9 1.1.6 1.7c0 .1-.1.1-.1.2-1.1 1.6-2.1 3.4-3 5.1-.9 1.8-1.7 3.6-2.5 5.4-.8 1.8-1.5 3.7-2.1 5.6-.2.5-.4.9-.3 1.5.1.6.4 1.4.6 2.1.2.7.2 1.3-.1 1.7-.3.4-1 .6-2.5.3-2.6-.6-4.8-1.9-6.3-3.7z"/><path class="st12" d="M71.8 28.5c.5-.9.9-1.9 1.2-2.8.3-1 .5-1.9.7-2.9.1-1 .1-2.1 0-3.1 0-.5 0-1 .1-1.5s0-1 .9-1.3c1.2-.3 2.5 0 3.3.9.7.7.3 1.1.2 1.6-.2.5-.4.9-.7 1.4-.5.9-1.1 1.8-1.5 2.7-.4.9-.6 1.9-.9 2.9-.2 1-.4 2-.3 3 0 .9-.7 1.6-1.6 1.6s-1.6-.7-1.6-1.6c-.1-.3 0-.6.2-.9zM55.3 99.3c-.6.9-.9 1.8-1.3 2.8-.3 1-.6 1.9-.8 2.9-.2 1-.1 2.1-.1 3.1 0 .5 0 1-.1 1.5s0 1-1 1.3c-1.2.3-2.5-.1-3.3-1-.7-.7-.3-1.1-.1-1.6.2-.5.5-.9.7-1.4.6-.9 1.2-1.8 1.6-2.7.4-.9.7-1.9.9-2.9.2-1 .4-2 .4-3 0-.9.7-1.6 1.6-1.6.9 0 1.6.7 1.6 1.6.1.5 0 .8-.1 1zM98.7 72.2c.9.5 1.9.9 2.8 1.2 1 .3 1.9.5 2.9.7 1 .1 2.1.1 3.1 0 .5 0 1 0 1.5.1s1 0 1.3.9c.3 1.2 0 2.5-.9 3.3-.7.7-1.1.3-1.6.2-.5-.2-.9-.4-1.4-.7-.9-.5-1.8-1.1-2.7-1.5-.9-.4-1.9-.6-2.9-.9-1-.2-2-.4-3-.3-.9 0-1.6-.7-1.6-1.6 0-.9.7-1.6 1.6-1.6.4 0 .7.1.9.2zM28 55.8c-.9-.6-1.8-.9-2.8-1.3-1-.3-1.9-.6-2.9-.8-1-.2-2.1-.1-3.1-.1-.5 0-1 0-1.5-.1s-1 0-1.3-1c-.3-1.2.1-2.5 1-3.3.7-.7 1.1-.3 1.6-.1.5.2.9.5 1.4.7.9.6 1.8 1.2 2.7 1.6.9.4 1.9.7 2.9.9 1 .2 2 .4 3 .4.9 0 1.6.7 1.6 1.6s-.9 1.7-1.8 1.7c-.3 0-.6-.1-.8-.2zM98.2 53.4c1 0 2-.2 3-.4s1.9-.5 2.9-.9c.9-.4 1.8-1 2.7-1.5.4-.3.9-.5 1.4-.7.5-.2.9-.5 1.6.2.9.9 1.2 2.2.9 3.3-.3 1-.8.9-1.3 1-.5.1-1 .1-1.5.1-1 0-2.1-.1-3.1.1s-2 .4-2.9.7c-1 .3-1.9.7-2.8 1.2-.8.5-1.7.2-2.2-.5-.5-.8-.2-1.7.5-2.2.2-.3.5-.4.8-.4zM28.7 74.6c-1 0-2.1.1-3 .3-1 .2-2 .5-2.9.8-1 .3-1.8.9-2.8 1.4-.5.3-.9.5-1.4.7-.5.2-.9.5-1.6-.2-.9-.9-1.1-2.2-.8-3.3.3-1 .8-.8 1.3-.9.5-.1 1-.1 1.5 0 1 0 2.1.1 3.1 0s2-.3 3-.6 1.9-.6 2.8-1.1c.8-.4 1.7-.2 2.2.6.4.8.2 1.7-.6 2.2-.3 0-.6.1-.8.1zM73.8 98.6c0 1 .2 2 .4 3s.5 1.9.9 2.9c.4.9 1 1.8 1.5 2.7.3.4.5.9.7 1.4.2.5.5.9-.2 1.6-.9.9-2.2 1.2-3.3.9-1-.3-.9-.8-1-1.3-.1-.5-.1-1-.1-1.5 0-1 .1-2.1-.1-3.1s-.4-2-.7-2.9c-.3-1-.7-1.9-1.2-2.8-.5-.8-.2-1.7.5-2.2s1.7-.2 2.2.5c.4.3.4.5.4.8zM52.7 29.1c0-1-.1-2.1-.3-3-.2-1-.5-2-.8-2.9-.3-1-.9-1.8-1.4-2.8-.3-.5-.5-.9-.7-1.4-.2-.5-.5-.9.2-1.6.9-.9 2.2-1.1 3.3-.8 1 .3.8.8.9 1.3.1.5.1 1 0 1.5 0 1-.1 2.1 0 3.1s.3 2 .6 3 .6 1.9 1.1 2.8c.4.8.2 1.7-.6 2.2-.8.4-1.7.2-2.2-.6-.1-.2-.1-.5-.1-.8zM88.3 37.4c.9-.5 1.7-1.2 2.4-1.8.7-.7 1.4-1.4 2.1-2.2.6-.8 1.1-1.8 1.6-2.7.3-.5.5-.9.8-1.3.3-.4.5-.9 1.5-.7 1.2.3 2.1 1.3 2.4 2.4.3 1-.3 1.2-.7 1.5-.4.3-.8.6-1.3.8-.9.5-1.9 1-2.7 1.6-.8.6-1.5 1.3-2.2 2.1-.7.8-1.3 1.5-1.8 2.5-.4.8-1.4 1-2.2.6-.8-.4-1-1.4-.6-2.2.2-.2.5-.4.7-.6zM38.7 90.5c-.9.5-1.7 1.1-2.5 1.8s-1.5 1.4-2.1 2.2c-.7.8-1.1 1.7-1.7 2.6-.3.4-.5.9-.9 1.3-.3.3-.5.8-1.5.6-1.2-.3-2.1-1.3-2.4-2.5-.2-1 .3-1.1.7-1.5.4-.3.9-.6 1.3-.8.9-.5 1.9-.9 2.7-1.5.8-.6 1.5-1.3 2.3-2 .7-.7 1.4-1.5 1.9-2.4.4-.8 1.4-1 2.2-.6.8.4 1 1.4.6 2.2-.2.3-.4.5-.6.6zM89.8 88.8c.5.9 1.2 1.7 1.8 2.4.7.7 1.4 1.4 2.2 2.1.8.6 1.8 1.1 2.7 1.6.5.3.9.5 1.3.8.4.3.9.5.7 1.5-.3 1.2-1.3 2.1-2.4 2.4-1 .3-1.2-.3-1.5-.7-.3-.4-.6-.8-.8-1.3-.5-.9-1-1.9-1.6-2.7-.6-.8-1.3-1.5-2.1-2.2-.8-.7-1.5-1.3-2.5-1.8-.8-.4-1-1.4-.6-2.2.4-.8 1.4-1 2.2-.6.3.2.5.4.6.7zM36.8 39.1c-.5-.9-1.1-1.7-1.8-2.5s-1.4-1.5-2.2-2.1c-.8-.7-1.7-1.1-2.6-1.7-.4-.3-.9-.5-1.3-.9-.4-.3-.9-.5-.6-1.5.3-1.2 1.3-2.1 2.5-2.4 1-.2 1.1.3 1.5.7.3.4.6.9.8 1.3.5.9.9 1.9 1.5 2.7.6.8 1.3 1.5 2 2.3.7.7 1.5 1.4 2.4 1.9.8.4 1 1.4.6 2.2-.4.8-1.4 1-2.2.6-.3-.1-.5-.3-.6-.6z"/><path d="M65.7 91.8c1.2-2.8 2-5.8 2.5-8.7.4-3 .4-5.8 0-8.7-.1-.7 0-1.1.2-1.2.2-.1.6.1 1.1.7 1.4 1.8 3.1 3.4 4.9 4.9 1.8 1.5 3.9 2.7 6.1 3.8 1.4.7 2.8-.5 2.1-2-.9-2.3-2.1-4.4-3.4-6.3-.7-1-1.4-1.9-2.1-2.8-.8-.9-1.6-1.7-2.4-2.5-1-1-.8-1.5.6-1.2 2.3.5 4.5.7 6.9.7 2.3-.1 4.8-.3 7.1-.9 1.5-.4 1.8-2.2.4-2.9-2.2-1.2-4.4-2-6.7-2.7-1.1-.3-2.3-.6-3.4-.8-1.2-.2-2.3-.3-3.5-.4-1.4-.1-1.6-.7-.3-1.4 2.1-1.1 3.9-2.4 5.8-3.9 1.8-1.5 3.4-3.3 4.9-5.3.9-1.2 0-2.8-1.6-2.5-2.4.5-4.7 1.2-6.9 2.2-2.1.9-4.2 2.1-6 3.5-1.2.8-1.7.5-1.1-.9.9-2.1 1.5-4.3 1.9-6.7.4-2.3.6-4.8.4-7.2 0-.8-.5-1.3-1-1.5-.6-.2-1.2 0-1.7.6-.8 1-1.5 1.9-2.1 2.9-.7 1-1.2 2.1-1.8 3.1-1 2.1-1.8 4.3-2.4 6.5-.4 1.4-1 1.5-1.4 0-.7-2.2-1.6-4.3-2.8-6.4-1.2-2-2.6-4-4.2-5.8-1-1.2-2.8-.6-2.7 1.1 0 1.2.1 2.4.2 3.6.1 1.2.4 2.4.6 3.5.5 2.3 1.3 4.5 2.3 6.5.6 1.3.2 1.8-1.1.9-1.9-1.2-4-2.3-6.2-3.1-2.2-.8-4.6-1.5-7-1.8-.8-.1-1.4.2-1.7.7-.3.5-.2 1.2.3 1.8 3.1 3.7 7 6.6 11.2 8.5 1.3.6 1.3 1.2-.2 1.4-2.2.3-4.5.8-6.8 1.5-2.2.8-4.4 1.8-6.5 3.1-.7.4-.9 1.1-.8 1.6.1.6.6 1.1 1.4 1.2 4.8.9 9.6.6 14.1-.6.7-.2 1.2-.2 1.3.1.1.2 0 .6-.6 1.1-4 4.1-6.9 9.4-8.3 15.5" fill="none" stroke="#ecc6c3" stroke-width="4" stroke-linecap="round" stroke-miterlimit="10"/></svg>